<mxfile host="app.diagrams.net" agent="Mozilla/5.0 (Windows NT 10.0; Win64; x64) AppleWebKit/537.36 (KHTML, like Gecko) Chrome/129.0.0.0 Safari/537.36" version="24.7.17">
  <diagram name="Página-1" id="D4_d1xDPSrwev0Vn7e6X">
    <mxGraphModel dx="2261" dy="780" grid="1" gridSize="10" guides="1" tooltips="1" connect="1" arrows="1" fold="1" page="1" pageScale="1" pageWidth="827" pageHeight="1169" math="0" shadow="0">
      <root>
        <mxCell id="0" />
        <mxCell id="1" parent="0" />
        <mxCell id="EtkR5dnqnk79eCHAH3Gn-23" style="edgeStyle=orthogonalEdgeStyle;rounded=0;orthogonalLoop=1;jettySize=auto;html=1;exitX=0.5;exitY=1;exitDx=0;exitDy=0;" edge="1" parent="1" source="EtkR5dnqnk79eCHAH3Gn-1" target="EtkR5dnqnk79eCHAH3Gn-21">
          <mxGeometry relative="1" as="geometry" />
        </mxCell>
        <mxCell id="EtkR5dnqnk79eCHAH3Gn-26" style="edgeStyle=orthogonalEdgeStyle;rounded=0;orthogonalLoop=1;jettySize=auto;html=1;" edge="1" parent="1" source="EtkR5dnqnk79eCHAH3Gn-1" target="EtkR5dnqnk79eCHAH3Gn-4">
          <mxGeometry relative="1" as="geometry" />
        </mxCell>
        <mxCell id="EtkR5dnqnk79eCHAH3Gn-1" value="CITA" style="rounded=0;whiteSpace=wrap;html=1;" vertex="1" parent="1">
          <mxGeometry x="590" y="110" width="120" height="60" as="geometry" />
        </mxCell>
        <mxCell id="EtkR5dnqnk79eCHAH3Gn-2" value="MÉDICO" style="rounded=0;whiteSpace=wrap;html=1;" vertex="1" parent="1">
          <mxGeometry x="100" y="110" width="120" height="60" as="geometry" />
        </mxCell>
        <mxCell id="EtkR5dnqnk79eCHAH3Gn-3" value="" style="endArrow=classic;startArrow=classic;html=1;rounded=0;entryX=0;entryY=0.5;entryDx=0;entryDy=0;exitX=1;exitY=0.5;exitDx=0;exitDy=0;" edge="1" parent="1" source="EtkR5dnqnk79eCHAH3Gn-4" target="EtkR5dnqnk79eCHAH3Gn-1">
          <mxGeometry width="50" height="50" relative="1" as="geometry">
            <mxPoint x="390" y="430" as="sourcePoint" />
            <mxPoint x="440" y="380" as="targetPoint" />
            <Array as="points">
              <mxPoint x="280" y="140" />
            </Array>
          </mxGeometry>
        </mxCell>
        <mxCell id="EtkR5dnqnk79eCHAH3Gn-5" value="" style="endArrow=classic;startArrow=classic;html=1;rounded=0;entryX=0;entryY=0.5;entryDx=0;entryDy=0;exitX=1;exitY=0.5;exitDx=0;exitDy=0;" edge="1" parent="1" source="EtkR5dnqnk79eCHAH3Gn-2" target="EtkR5dnqnk79eCHAH3Gn-4">
          <mxGeometry width="50" height="50" relative="1" as="geometry">
            <mxPoint x="220" y="140" as="sourcePoint" />
            <mxPoint x="590" y="140" as="targetPoint" />
            <Array as="points" />
          </mxGeometry>
        </mxCell>
        <mxCell id="EtkR5dnqnk79eCHAH3Gn-4" value="Asignar" style="rhombus;whiteSpace=wrap;html=1;" vertex="1" parent="1">
          <mxGeometry x="360" y="100" width="80" height="80" as="geometry" />
        </mxCell>
        <mxCell id="EtkR5dnqnk79eCHAH3Gn-10" value="NOMBRE" style="ellipse;whiteSpace=wrap;html=1;" vertex="1" parent="1">
          <mxGeometry x="40" y="50" width="100" height="40" as="geometry" />
        </mxCell>
        <mxCell id="EtkR5dnqnk79eCHAH3Gn-16" style="edgeStyle=orthogonalEdgeStyle;rounded=0;orthogonalLoop=1;jettySize=auto;html=1;entryX=0.75;entryY=1;entryDx=0;entryDy=0;" edge="1" parent="1" source="EtkR5dnqnk79eCHAH3Gn-11" target="EtkR5dnqnk79eCHAH3Gn-2">
          <mxGeometry relative="1" as="geometry" />
        </mxCell>
        <mxCell id="EtkR5dnqnk79eCHAH3Gn-11" value="ID_Medico" style="ellipse;whiteSpace=wrap;html=1;" vertex="1" parent="1">
          <mxGeometry x="190" y="210" width="100" height="40" as="geometry" />
        </mxCell>
        <mxCell id="EtkR5dnqnk79eCHAH3Gn-12" value="ESPECIALIDAD" style="ellipse;whiteSpace=wrap;html=1;" vertex="1" parent="1">
          <mxGeometry x="60" y="220" width="100" height="40" as="geometry" />
        </mxCell>
        <mxCell id="EtkR5dnqnk79eCHAH3Gn-13" value="TELÉFONO" style="ellipse;whiteSpace=wrap;html=1;" vertex="1" parent="1">
          <mxGeometry x="180" y="50" width="100" height="40" as="geometry" />
        </mxCell>
        <mxCell id="EtkR5dnqnk79eCHAH3Gn-15" value="" style="endArrow=none;dashed=1;html=1;rounded=0;exitX=0.01;exitY=0.725;exitDx=0;exitDy=0;exitPerimeter=0;" edge="1" parent="1">
          <mxGeometry width="50" height="50" relative="1" as="geometry">
            <mxPoint x="505.5" y="479" as="sourcePoint" />
            <mxPoint x="594.5" y="479" as="targetPoint" />
            <Array as="points">
              <mxPoint x="554.5" y="479" />
            </Array>
          </mxGeometry>
        </mxCell>
        <mxCell id="EtkR5dnqnk79eCHAH3Gn-17" style="edgeStyle=orthogonalEdgeStyle;rounded=0;orthogonalLoop=1;jettySize=auto;html=1;exitX=0.5;exitY=0;exitDx=0;exitDy=0;entryX=0.358;entryY=1.017;entryDx=0;entryDy=0;entryPerimeter=0;" edge="1" parent="1" source="EtkR5dnqnk79eCHAH3Gn-12" target="EtkR5dnqnk79eCHAH3Gn-2">
          <mxGeometry relative="1" as="geometry" />
        </mxCell>
        <mxCell id="EtkR5dnqnk79eCHAH3Gn-18" style="edgeStyle=orthogonalEdgeStyle;rounded=0;orthogonalLoop=1;jettySize=auto;html=1;exitX=0.5;exitY=1;exitDx=0;exitDy=0;entryX=0;entryY=0.4;entryDx=0;entryDy=0;entryPerimeter=0;" edge="1" parent="1" source="EtkR5dnqnk79eCHAH3Gn-10" target="EtkR5dnqnk79eCHAH3Gn-2">
          <mxGeometry relative="1" as="geometry" />
        </mxCell>
        <mxCell id="EtkR5dnqnk79eCHAH3Gn-20" style="edgeStyle=orthogonalEdgeStyle;rounded=0;orthogonalLoop=1;jettySize=auto;html=1;exitX=0;exitY=0.5;exitDx=0;exitDy=0;entryX=0.6;entryY=-0.05;entryDx=0;entryDy=0;entryPerimeter=0;" edge="1" parent="1" source="EtkR5dnqnk79eCHAH3Gn-13" target="EtkR5dnqnk79eCHAH3Gn-2">
          <mxGeometry relative="1" as="geometry" />
        </mxCell>
        <mxCell id="EtkR5dnqnk79eCHAH3Gn-22" style="edgeStyle=orthogonalEdgeStyle;rounded=0;orthogonalLoop=1;jettySize=auto;html=1;entryX=0.5;entryY=1;entryDx=0;entryDy=0;" edge="1" parent="1" source="EtkR5dnqnk79eCHAH3Gn-24" target="EtkR5dnqnk79eCHAH3Gn-1">
          <mxGeometry relative="1" as="geometry" />
        </mxCell>
        <mxCell id="EtkR5dnqnk79eCHAH3Gn-21" value="PACIENTE" style="rounded=0;whiteSpace=wrap;html=1;" vertex="1" parent="1">
          <mxGeometry x="590" y="380" width="120" height="60" as="geometry" />
        </mxCell>
        <mxCell id="EtkR5dnqnk79eCHAH3Gn-25" value="" style="edgeStyle=orthogonalEdgeStyle;rounded=0;orthogonalLoop=1;jettySize=auto;html=1;entryX=0.5;entryY=1;entryDx=0;entryDy=0;" edge="1" parent="1" source="EtkR5dnqnk79eCHAH3Gn-21" target="EtkR5dnqnk79eCHAH3Gn-24">
          <mxGeometry relative="1" as="geometry">
            <mxPoint x="650" y="380" as="sourcePoint" />
            <mxPoint x="650" y="170" as="targetPoint" />
          </mxGeometry>
        </mxCell>
        <mxCell id="EtkR5dnqnk79eCHAH3Gn-24" value="Acude" style="rhombus;whiteSpace=wrap;html=1;" vertex="1" parent="1">
          <mxGeometry x="610" y="240" width="80" height="80" as="geometry" />
        </mxCell>
        <mxCell id="EtkR5dnqnk79eCHAH3Gn-32" style="edgeStyle=orthogonalEdgeStyle;rounded=0;orthogonalLoop=1;jettySize=auto;html=1;entryX=0;entryY=0.5;entryDx=0;entryDy=0;" edge="1" parent="1" source="EtkR5dnqnk79eCHAH3Gn-28" target="EtkR5dnqnk79eCHAH3Gn-21">
          <mxGeometry relative="1" as="geometry" />
        </mxCell>
        <mxCell id="EtkR5dnqnk79eCHAH3Gn-28" value="ID_Paciente" style="ellipse;whiteSpace=wrap;html=1;" vertex="1" parent="1">
          <mxGeometry x="510" y="460" width="100" height="40" as="geometry" />
        </mxCell>
        <mxCell id="EtkR5dnqnk79eCHAH3Gn-29" value="" style="endArrow=none;dashed=1;html=1;rounded=0;exitX=0.01;exitY=0.725;exitDx=0;exitDy=0;exitPerimeter=0;" edge="1" parent="1">
          <mxGeometry width="50" height="50" relative="1" as="geometry">
            <mxPoint x="515.5" y="489" as="sourcePoint" />
            <mxPoint x="604.5" y="489" as="targetPoint" />
            <Array as="points">
              <mxPoint x="564.5" y="489" />
            </Array>
          </mxGeometry>
        </mxCell>
        <mxCell id="EtkR5dnqnk79eCHAH3Gn-34" style="edgeStyle=orthogonalEdgeStyle;rounded=0;orthogonalLoop=1;jettySize=auto;html=1;entryX=1;entryY=0.5;entryDx=0;entryDy=0;" edge="1" parent="1" source="EtkR5dnqnk79eCHAH3Gn-33" target="EtkR5dnqnk79eCHAH3Gn-21">
          <mxGeometry relative="1" as="geometry" />
        </mxCell>
        <mxCell id="EtkR5dnqnk79eCHAH3Gn-33" value="NOMBRE" style="ellipse;whiteSpace=wrap;html=1;" vertex="1" parent="1">
          <mxGeometry x="680" y="460" width="100" height="40" as="geometry" />
        </mxCell>
        <mxCell id="EtkR5dnqnk79eCHAH3Gn-36" style="edgeStyle=orthogonalEdgeStyle;rounded=0;orthogonalLoop=1;jettySize=auto;html=1;entryX=0.25;entryY=0;entryDx=0;entryDy=0;" edge="1" parent="1" source="EtkR5dnqnk79eCHAH3Gn-35" target="EtkR5dnqnk79eCHAH3Gn-21">
          <mxGeometry relative="1" as="geometry" />
        </mxCell>
        <mxCell id="EtkR5dnqnk79eCHAH3Gn-35" value="FECHA NACIMIENTO" style="ellipse;whiteSpace=wrap;html=1;" vertex="1" parent="1">
          <mxGeometry x="470" y="340" width="100" height="40" as="geometry" />
        </mxCell>
        <mxCell id="EtkR5dnqnk79eCHAH3Gn-38" style="edgeStyle=orthogonalEdgeStyle;rounded=0;orthogonalLoop=1;jettySize=auto;html=1;entryX=1;entryY=0.25;entryDx=0;entryDy=0;" edge="1" parent="1" source="EtkR5dnqnk79eCHAH3Gn-37" target="EtkR5dnqnk79eCHAH3Gn-21">
          <mxGeometry relative="1" as="geometry" />
        </mxCell>
        <mxCell id="EtkR5dnqnk79eCHAH3Gn-37" value="DIRECCION" style="ellipse;whiteSpace=wrap;html=1;" vertex="1" parent="1">
          <mxGeometry x="710" y="330" width="100" height="40" as="geometry" />
        </mxCell>
        <mxCell id="EtkR5dnqnk79eCHAH3Gn-39" value="" style="endArrow=none;dashed=1;html=1;rounded=0;exitX=0.01;exitY=0.725;exitDx=0;exitDy=0;exitPerimeter=0;" edge="1" parent="1">
          <mxGeometry width="50" height="50" relative="1" as="geometry">
            <mxPoint x="690" y="69" as="sourcePoint" />
            <mxPoint x="779" y="69" as="targetPoint" />
            <Array as="points">
              <mxPoint x="739" y="69" />
            </Array>
          </mxGeometry>
        </mxCell>
        <mxCell id="EtkR5dnqnk79eCHAH3Gn-44" style="edgeStyle=orthogonalEdgeStyle;rounded=0;orthogonalLoop=1;jettySize=auto;html=1;entryX=1;entryY=0.5;entryDx=0;entryDy=0;" edge="1" parent="1" source="EtkR5dnqnk79eCHAH3Gn-40" target="EtkR5dnqnk79eCHAH3Gn-1">
          <mxGeometry relative="1" as="geometry" />
        </mxCell>
        <mxCell id="EtkR5dnqnk79eCHAH3Gn-40" value="ID_Cita" style="ellipse;whiteSpace=wrap;html=1;" vertex="1" parent="1">
          <mxGeometry x="694.5" y="50" width="100" height="40" as="geometry" />
        </mxCell>
        <mxCell id="EtkR5dnqnk79eCHAH3Gn-41" value="" style="endArrow=none;dashed=1;html=1;rounded=0;exitX=0.01;exitY=0.725;exitDx=0;exitDy=0;exitPerimeter=0;" edge="1" parent="1">
          <mxGeometry width="50" height="50" relative="1" as="geometry">
            <mxPoint x="700" y="79" as="sourcePoint" />
            <mxPoint x="789" y="79" as="targetPoint" />
            <Array as="points">
              <mxPoint x="749" y="79" />
            </Array>
          </mxGeometry>
        </mxCell>
        <mxCell id="EtkR5dnqnk79eCHAH3Gn-47" style="edgeStyle=orthogonalEdgeStyle;rounded=0;orthogonalLoop=1;jettySize=auto;html=1;entryX=0;entryY=0.25;entryDx=0;entryDy=0;" edge="1" parent="1" source="EtkR5dnqnk79eCHAH3Gn-45" target="EtkR5dnqnk79eCHAH3Gn-1">
          <mxGeometry relative="1" as="geometry" />
        </mxCell>
        <mxCell id="EtkR5dnqnk79eCHAH3Gn-45" value="Fecha" style="ellipse;whiteSpace=wrap;html=1;" vertex="1" parent="1">
          <mxGeometry x="550" y="50" width="100" height="40" as="geometry" />
        </mxCell>
        <mxCell id="EtkR5dnqnk79eCHAH3Gn-48" style="edgeStyle=orthogonalEdgeStyle;rounded=0;orthogonalLoop=1;jettySize=auto;html=1;entryX=0;entryY=1;entryDx=0;entryDy=0;" edge="1" parent="1" source="EtkR5dnqnk79eCHAH3Gn-46" target="EtkR5dnqnk79eCHAH3Gn-1">
          <mxGeometry relative="1" as="geometry" />
        </mxCell>
        <mxCell id="EtkR5dnqnk79eCHAH3Gn-46" value="Hora" style="ellipse;whiteSpace=wrap;html=1;" vertex="1" parent="1">
          <mxGeometry x="500" y="180" width="100" height="40" as="geometry" />
        </mxCell>
        <mxCell id="EtkR5dnqnk79eCHAH3Gn-49" value="HISTORIAL" style="rounded=0;whiteSpace=wrap;html=1;" vertex="1" parent="1">
          <mxGeometry x="100" y="440" width="120" height="60" as="geometry" />
        </mxCell>
        <mxCell id="EtkR5dnqnk79eCHAH3Gn-50" value="" style="endArrow=none;dashed=1;html=1;rounded=0;exitX=0.01;exitY=0.725;exitDx=0;exitDy=0;exitPerimeter=0;" edge="1" parent="1">
          <mxGeometry width="50" height="50" relative="1" as="geometry">
            <mxPoint x="195.5" y="239" as="sourcePoint" />
            <mxPoint x="284.5" y="239" as="targetPoint" />
            <Array as="points">
              <mxPoint x="244.5" y="239" />
            </Array>
          </mxGeometry>
        </mxCell>
        <mxCell id="EtkR5dnqnk79eCHAH3Gn-59" style="edgeStyle=orthogonalEdgeStyle;rounded=0;orthogonalLoop=1;jettySize=auto;html=1;entryX=1;entryY=0.25;entryDx=0;entryDy=0;" edge="1" parent="1" source="EtkR5dnqnk79eCHAH3Gn-51" target="EtkR5dnqnk79eCHAH3Gn-49">
          <mxGeometry relative="1" as="geometry" />
        </mxCell>
        <mxCell id="EtkR5dnqnk79eCHAH3Gn-51" value="ID_Historial" style="ellipse;whiteSpace=wrap;html=1;" vertex="1" parent="1">
          <mxGeometry x="190" y="530" width="100" height="40" as="geometry" />
        </mxCell>
        <mxCell id="EtkR5dnqnk79eCHAH3Gn-52" value="" style="endArrow=none;dashed=1;html=1;rounded=0;exitX=0.01;exitY=0.725;exitDx=0;exitDy=0;exitPerimeter=0;" edge="1" parent="1">
          <mxGeometry width="50" height="50" relative="1" as="geometry">
            <mxPoint x="195.5" y="559" as="sourcePoint" />
            <mxPoint x="284.5" y="559" as="targetPoint" />
            <Array as="points" />
          </mxGeometry>
        </mxCell>
        <mxCell id="EtkR5dnqnk79eCHAH3Gn-57" style="edgeStyle=orthogonalEdgeStyle;rounded=0;orthogonalLoop=1;jettySize=auto;html=1;entryX=0;entryY=0.25;entryDx=0;entryDy=0;" edge="1" parent="1" source="EtkR5dnqnk79eCHAH3Gn-53" target="EtkR5dnqnk79eCHAH3Gn-49">
          <mxGeometry relative="1" as="geometry" />
        </mxCell>
        <mxCell id="EtkR5dnqnk79eCHAH3Gn-53" value="DIAGNOSTICO&lt;span style=&quot;color: rgba(0, 0, 0, 0); font-family: monospace; font-size: 0px; text-align: start; text-wrap: nowrap;&quot;&gt;%3CmxGraphModel%3E%3Croot%3E%3CmxCell%20id%3D%220%22%2F%3E%3CmxCell%20id%3D%221%22%20parent%3D%220%22%2F%3E%3CmxCell%20id%3D%222%22%20value%3D%22NOMBRE%22%20style%3D%22ellipse%3BwhiteSpace%3Dwrap%3Bhtml%3D1%3B%22%20vertex%3D%221%22%20parent%3D%221%22%3E%3CmxGeometry%20x%3D%2240%22%20y%3D%2250%22%20width%3D%22100%22%20height%3D%2240%22%20as%3D%22geometry%22%2F%3E%3C%2FmxCell%3E%3C%2Froot%3E%3C%2FmxGraphModel%3E&lt;/span&gt;" style="ellipse;whiteSpace=wrap;html=1;" vertex="1" parent="1">
          <mxGeometry x="-10" y="530" width="100" height="40" as="geometry" />
        </mxCell>
        <mxCell id="EtkR5dnqnk79eCHAH3Gn-60" style="edgeStyle=orthogonalEdgeStyle;rounded=0;orthogonalLoop=1;jettySize=auto;html=1;entryX=0.75;entryY=0;entryDx=0;entryDy=0;" edge="1" parent="1" source="EtkR5dnqnk79eCHAH3Gn-54" target="EtkR5dnqnk79eCHAH3Gn-49">
          <mxGeometry relative="1" as="geometry" />
        </mxCell>
        <mxCell id="EtkR5dnqnk79eCHAH3Gn-54" value="TRATAMIENTO" style="ellipse;whiteSpace=wrap;html=1;" vertex="1" parent="1">
          <mxGeometry x="230" y="380" width="100" height="40" as="geometry" />
        </mxCell>
        <mxCell id="EtkR5dnqnk79eCHAH3Gn-55" value="" style="endArrow=classic;startArrow=classic;html=1;rounded=0;exitX=0.583;exitY=-0.017;exitDx=0;exitDy=0;exitPerimeter=0;" edge="1" parent="1" source="EtkR5dnqnk79eCHAH3Gn-49">
          <mxGeometry width="50" height="50" relative="1" as="geometry">
            <mxPoint x="120" y="220" as="sourcePoint" />
            <mxPoint x="170" y="170" as="targetPoint" />
          </mxGeometry>
        </mxCell>
        <mxCell id="EtkR5dnqnk79eCHAH3Gn-56" value="Revisar" style="rhombus;whiteSpace=wrap;html=1;" vertex="1" parent="1">
          <mxGeometry x="130" y="270" width="80" height="80" as="geometry" />
        </mxCell>
        <mxCell id="EtkR5dnqnk79eCHAH3Gn-62" value="1..N" style="text;strokeColor=none;fillColor=none;align=left;verticalAlign=middle;spacingLeft=4;spacingRight=4;overflow=hidden;points=[[0,0.5],[1,0.5]];portConstraint=eastwest;rotatable=0;whiteSpace=wrap;html=1;" vertex="1" parent="1">
          <mxGeometry x="290" y="110" width="80" height="30" as="geometry" />
        </mxCell>
        <mxCell id="EtkR5dnqnk79eCHAH3Gn-63" value="1..N" style="text;strokeColor=none;fillColor=none;align=left;verticalAlign=middle;spacingLeft=4;spacingRight=4;overflow=hidden;points=[[0,0.5],[1,0.5]];portConstraint=eastwest;rotatable=0;whiteSpace=wrap;html=1;" vertex="1" parent="1">
          <mxGeometry x="120" y="340" width="80" height="30" as="geometry" />
        </mxCell>
        <mxCell id="EtkR5dnqnk79eCHAH3Gn-64" value="1..N" style="text;strokeColor=none;fillColor=none;align=left;verticalAlign=middle;spacingLeft=4;spacingRight=4;overflow=hidden;points=[[0,0.5],[1,0.5]];portConstraint=eastwest;rotatable=0;whiteSpace=wrap;html=1;" vertex="1" parent="1">
          <mxGeometry x="180" y="260" width="80" height="30" as="geometry" />
        </mxCell>
        <mxCell id="EtkR5dnqnk79eCHAH3Gn-65" value="1..N" style="text;strokeColor=none;fillColor=none;align=left;verticalAlign=middle;spacingLeft=4;spacingRight=4;overflow=hidden;points=[[0,0.5],[1,0.5]];portConstraint=eastwest;rotatable=0;whiteSpace=wrap;html=1;" vertex="1" parent="1">
          <mxGeometry x="600" y="300" width="80" height="30" as="geometry" />
        </mxCell>
        <mxCell id="EtkR5dnqnk79eCHAH3Gn-67" value="&lt;span style=&quot;color: rgb(0, 0, 0); font-family: Helvetica; font-size: 12px; font-style: normal; font-variant-ligatures: normal; font-variant-caps: normal; font-weight: 400; letter-spacing: normal; orphans: 2; text-align: left; text-indent: 0px; text-transform: none; widows: 2; word-spacing: 0px; -webkit-text-stroke-width: 0px; white-space: normal; background-color: rgb(251, 251, 251); text-decoration-thickness: initial; text-decoration-style: initial; text-decoration-color: initial; display: inline !important; float: none;&quot;&gt;1&lt;/span&gt;" style="text;whiteSpace=wrap;html=1;" vertex="1" parent="1">
          <mxGeometry x="650" y="220" width="60" height="40" as="geometry" />
        </mxCell>
        <mxCell id="EtkR5dnqnk79eCHAH3Gn-68" value="1..N" style="text;strokeColor=none;fillColor=none;align=left;verticalAlign=middle;spacingLeft=4;spacingRight=4;overflow=hidden;points=[[0,0.5],[1,0.5]];portConstraint=eastwest;rotatable=0;whiteSpace=wrap;html=1;" vertex="1" parent="1">
          <mxGeometry x="460" y="110" width="80" height="30" as="geometry" />
        </mxCell>
      </root>
    </mxGraphModel>
  </diagram>
</mxfile>
